Patient4_TMGait_0pt5_01_left_31_GRF.mot
version=1
nRows=39
nColumns=19
inDegrees=no
endheader
time	F1x	F1y	F1z	M1x	M1y	M1z	F2x	F2y	F2z	M2x	M2y	M2z	EC1x	EC1y	EC1z	EC2x	EC2y	EC2z
41.38	-20.0129	-8.0836	-1.6137	1.2037	-2.4228	-6.8942	-26.951	769.9201	-70.5972	291.1407	73.3279	702.0703	-0.0592	0.0182	-0.0073	-0.0462	0.0165	0.9585
41.3931	-13.531	-4.9207	-1.1393	0.63217	-1.6498	-4.1969	-23.9612	757.7127	-64.3631	285.4963	65.803	687.5505	-0.0592	0.0182	-0.0073	-0.0462	0.0165	0.9585
41.4061	-8.0644	-2.2379	-0.71167	0.13735	-1.0171	-1.9029	-20.5564	745.55	-58.5345	280.0551	58.5022	672.511	-0.0592	0.0182	-0.0073	-0.0462	0.0165	0.9585
41.4192	-3.9168	-0.19293	-0.36385	-0.24986	-0.55636	-0.1524	-16.9313	734.8472	-53.4814	275.4076	51.8763	658.3758	-0.0592	0.0182	-0.0073	-0.0462	0.0165	0.9585
41.4323	-1.0618	1.2244	-0.11248	-0.5303	-0.24873	1.0655	-13.2647	726.7836	-49.3496	271.9942	46.1413	646.3448	-0.0592	0.0182	-0.0073	-0.0462	0.0165	0.9585
41.4454	0.68514	2.1021	0.05616	-0.71617	-0.074353	1.8352	-9.7044	722.1476	-46.1646	270.0724	41.3747	637.2404	-0.0592	0.0182	-0.0073	-0.0462	0.0165	0.9585
41.4584	1.5816	2.5551	0.15166	-0.82412	0.0046525	2.2468	-6.3631	721.2681	-43.8649	269.7097	37.5535	631.4466	-0.0592	0.0182	-0.0073	-0.0462	0.0165	0.9585
41.4715	1.8722	2.705	0.1989	-0.86955	0.010156	2.4023	-3.3192	724.0058	-42.3561	270.7942	34.6064	628.9114	-0.0592	0.0182	-0.0073	-0.0462	0.0165	0.9585
41.4846	1.7877	2.6376	0.21194	-0.86044	-0.028493	2.3666	-0.62524	729.8145	-41.509	273.0671	32.4205	629.2057	-0.0592	0.0182	-0.0073	-0.0462	0.0165	0.9585
41.4976	1.4831	2.4171	0.21541	-0.80056	-0.10787	2.1997	1.7085	737.86	-41.1953	276.1715	30.875	631.629	-0.0592	0.0182	-0.0073	-0.0462	0.0165	0.9585
41.5107	1.0804	2.0656	0.21282	-0.68662	-0.20892	1.9101	3.7123	747.104	-41.2772	279.6885	29.8293	635.2933	-0.0592	0.0182	-0.0073	-0.0462	0.0165	0.9585
41.5238	0.65099	1.5617	0.21622	-0.50483	-0.32651	1.4741	5.4237	756.3866	-41.6328	283.1669	29.1533	639.2143	-0.0592	0.0182	-0.0073	-0.0462	0.0165	0.9585
41.5369	0.24613	0.87417	0.21649	-0.24179	-0.43585	0.84783	6.8815	764.5346	-42.1405	286.1627	28.7224	642.4044	-0.0592	0.0182	-0.0073	-0.0462	0.0165	0.9585
41.5499	-0.086129	-0.030759	0.22195	0.11451	-0.5296	-0.011797	8.1067	770.5125	-42.6802	288.2902	28.425	644.0083	-0.0592	0.0182	-0.0073	-0.0462	0.0165	0.9585
41.563	-0.2855	-1.15	0.22089	0.56193	-0.57498	-1.0941	9.1352	773.5113	-43.1554	289.251	28.1691	643.3533	-0.0592	0.0182	-0.0073	-0.0462	0.0165	0.9585
41.5761	-0.25584	-2.4242	0.21113	1.0737	-0.52837	-2.3425	10.0174	773.085	-43.5033	288.8797	27.8902	640.074	-0.0592	0.0182	-0.0073	-0.0462	0.0165	0.9585
41.5891	0.11866	-3.6779	0.16801	1.5766	-0.31471	-3.5908	10.8163	769.2515	-43.7095	287.1831	27.5602	634.1847	-0.0592	0.0182	-0.0073	-0.0462	0.0165	0.9585
41.6022	0.99136	-4.5947	0.063132	1.9423	0.15348	-4.5431	11.6089	762.5278	-43.8041	284.3535	27.1788	626.103	-0.0592	0.0182	-0.0073	-0.0462	0.0165	0.9585
41.6153	2.5236	-4.6483	-0.15625	1.9641	0.98774	-4.6954	12.487	753.8458	-43.8401	280.7384	26.7549	616.5751	-0.0592	0.0182	-0.0073	-0.0462	0.0165	0.9585
41.6284	4.8533	-3.0817	-0.54184	1.3456	2.2919	-3.3136	13.5655	744.3317	-43.8593	276.7637	26.2766	606.4726	-0.0592	0.0182	-0.0073	-0.0462	0.0165	0.9585
41.6414	8.0438	1.0935	-1.1517	-0.30237	4.1463	0.55599	14.9425	735.0816	-43.8905	272.8454	25.7217	596.642	-0.0592	0.0182	-0.0073	-0.0462	0.0165	0.9585
41.6545	11.9916	9.0421	-2.0228	-3.4349	6.5436	8.055	16.6788	726.877	-43.95	269.2833	25.0696	587.6832	-0.0592	0.0182	-0.0073	-0.0462	0.0165	0.9585
41.6676	16.3202	21.9294	-3.1607	-8.5041	9.3378	20.3334	18.751	719.9886	-44.0384	266.1849	24.3176	579.8142	-0.0592	0.0182	-0.0073	-0.0462	0.0165	0.9585
41.6806	20.2246	40.6393	-4.4929	-15.8502	12.1401	38.304	21.0626	714.0948	-44.1212	263.437	23.4701	572.804	-0.0592	0.0182	-0.0073	-0.0462	0.0165	0.9585
41.6937	22.4644	65.4228	-5.8511	-25.5664	14.3037	62.2982	23.4592	708.4093	-44.1318	260.7545	22.5373	566.0811	-0.0592	0.0182	-0.0073	-0.0462	0.0165	0.9585
41.7068	21.8153	95.8192	-6.9837	-37.4651	15.113	91.9961	25.769	701.9161	-43.9722	257.7698	21.5187	558.9004	-0.0592	0.0182	-0.0073	-0.0462	0.0165	0.9585
41.7199	18.1828	131.124	-7.6395	-51.2479	14.2789	126.8404	27.8461	693.6386	-43.5375	254.136	20.3997	550.5305	-0.0592	0.0182	-0.0073	-0.0462	0.0165	0.9585
41.7329	12.598	170.2044	-7.5153	-66.4252	11.887	165.7642	29.5777	682.7901	-42.7236	249.5803	19.1484	540.3708	-0.0592	0.0182	-0.0073	-0.0462	0.0165	0.9585
41.746	6.1188	210.3663	-6.1306	-81.9047	7.8791	206.0201	30.904	668.7467	-41.4447	243.8958	17.7314	527.9236	-0.0592	0.0182	-0.0073	-0.0462	0.0165	0.9585
41.7591	-0.29819	247.6277	-3.3347	-96.1444	2.5039	243.5263	31.8055	651.0814	-39.6297	236.9503	16.1126	512.8283	-0.0592	0.0182	-0.0073	-0.0462	0.0165	0.9585
41.7721	-5.8167	278.4572	0.32833	-107.8214	-3.3376	274.6795	32.3228	629.6741	-37.2899	228.7193	14.2947	494.9428	-0.0592	0.0182	-0.0073	-0.0462	0.0165	0.9585
41.7852	-10.1759	301.3675	4.2677	-116.4041	-8.9253	297.9494	32.5462	604.7889	-34.5411	219.3029	12.3369	474.4249	-0.0592	0.0182	-0.0073	-0.0462	0.0165	0.9585
41.7983	-13.5465	317.2696	7.935	-122.2852	-13.7824	314.1962	32.5872	576.9975	-31.5566	208.9012	10.3194	451.6932	-0.0592	0.0182	-0.0073	-0.0462	0.0165	0.9585
41.8114	-16.2796	328.6418	10.9939	-126.454	-17.7254	325.8631	32.5577	547.0351	-28.5152	197.7692	8.3163	427.3083	-0.0592	0.0182	-0.0073	-0.0462	0.0165	0.9585
41.8244	-18.5998	338.4622	13.1875	-130.0812	-20.6176	335.8412	32.486	515.7058	-25.5343	186.187	6.381	401.9087	-0.0592	0.0182	-0.0073	-0.0462	0.0165	0.9585
41.8375	-20.576	349.2851	14.5722	-134.1511	-22.5563	346.6026	32.3267	483.7121	-22.6841	174.3997	4.5595	376.0589	-0.0592	0.0182	-0.0073	-0.0462	0.0165	0.9585
41.8506	-22.1305	362.7303	15.423	-139.2677	-23.7874	359.6385	31.9783	451.5082	-19.9936	162.5642	2.8881	350.1391	-0.0592	0.0182	-0.0073	-0.0462	0.0165	0.9585
41.8636	-23.2156	379.4441	16.2995	-145.636	-24.8258	375.5133	31.3358	419.2284	-17.4874	150.724	1.412	324.282	-0.0592	0.0182	-0.0073	-0.0462	0.0165	0.9585
41.8767	-23.8449	399.3321	17.7158	-153.1804	-26.1646	394.0886	30.323	386.753	-15.1885	138.8337	0.17345	298.4197	-0.0592	0.0182	-0.0073	-0.0462	0.0165	0.9585
